<?xml version="1.0" standalone="no"?>
<!DOCTYPE svg PUBLIC "-//W3C//DTD SVG 20010904//EN"
 "http://www.w3.org/TR/2001/REC-SVG-20010904/DTD/svg10.dtd">
<svg version="1.0" xmlns="http://www.w3.org/2000/svg"
 width="514.000000pt" height="128.000000pt" viewBox="0 0 514.000000 128.000000"
 preserveAspectRatio="xMidYMid meet">
<metadata>
Created by potrace 1.16, written by Peter Selinger 2001-2019
</metadata>
<g transform="translate(0.000000,128.000000) scale(0.100000,-0.100000)"
fill="#000000" stroke="none">
<path d="M675 439 c-16 -5 -50 -8 -74 -7 -56 3 -67 -19 -40 -74 16 -30 17 -42
7 -63 -6 -14 -15 -25 -19 -25 -12 0 -22 46 -17 79 l4 28 -35 -14 c-52 -22
-139 -82 -187 -128 -43 -41 -51 -65 -69 -188 l-7 -47 401 0 401 0 0 53 c0 59
-23 137 -52 179 -10 14 -38 33 -63 41 -50 18 -102 53 -158 110 l-39 39 -18
-30 c-19 -31 -77 -72 -103 -72 -19 0 -47 49 -47 81 0 18 4 20 28 16 29 -6 111
10 127 24 11 11 0 10 -40 -2z"/>
</g>
</svg>
